<svg width="583" height="667" viewBox="0 0 583 667" fill="none" xmlns="http://www.w3.org/2000/svg">
<path fill-rule="evenodd" clip-rule="evenodd" d="M583 365.6V298.899L502.213 272.22L483.474 226.78L520.119 150.075L473.063 102.968L397.689 140.904L352.299 122.144L323.565 42.1045H256.936L230.701 122.978L184.478 141.738L107.855 105.053L60.7986 152.159L98.6936 227.614L79.9543 273.053L0 301.401V367.684L80.7871 394.364L99.5264 439.803L62.8807 516.508L109.937 563.615L185.311 525.679L230.701 544.439L259.435 624.479H325.647L351.882 543.605L398.106 524.846L474.729 561.531L521.785 514.424L483.474 438.969L503.046 393.53L583 364.766V365.6ZM291.5 458.563C222.373 458.563 166.571 402.701 166.571 333.5C166.571 264.299 222.373 208.438 291.5 208.438C360.627 208.438 416.429 264.299 416.429 333.5C416.429 402.701 360.627 458.563 291.5 458.563Z" fill="#27415A"/>
</svg>
